<?xml version="1.0" encoding="utf-8"?>
<!-- Svg Vector Icons : http://www.onlinewebfonts.com/icon -->
<!DOCTYPE svg PUBLIC "-//W3C//DTD SVG 1.1//EN" "http://www.w3.org/Graphics/SVG/1.1/DTD/svg11.dtd">
<svg version="1.1" xmlns="http://www.w3.org/2000/svg" xmlns:xlink="http://www.w3.org/1999/xlink" x="0px" y="0px" viewBox="0 0 1000 1000" enable-background="new 0 0 1000 1000" xml:space="preserve">
<metadata> Svg Vector Icons : http://www.onlinewebfonts.com/icon </metadata>
<g><g transform="translate(0.000000,511.000000) scale(0.100000,-0.100000)"><path d="M4412.1,4974.4C2755.3,4768.5,1331.4,3751.4,598.6,2254C-215,585-23.9-1365.8,1106-2860.8c196.1-259.8,664.2-727.9,923.9-924c1774.4-1340.6,4166.3-1340.6,5940.7,0c259.8,196.1,727.9,664.2,924,924c1340.6,1774.4,1340.6,4166.3,0,5940.7c-196.1,259.8-664.2,727.9-924,923.9C6943.7,4780.8,5662,5128.8,4412.1,4974.4z M5461,4592c950.9-102.9,1816.1-485.3,2536.6-1122.5c1071-946,1639.6-2409.1,1485.2-3820.8c-164.2-1524.4-1071-2847.8-2423.8-3543.9c-1659.2-855.3-3637-605.3-5048.6,637.2C1304.5-2637.8,777.5-1731,588.8-809.5c-411.7,1990,549,3992.3,2357.7,4926.1C3716,4513.6,4617.9,4685.2,5461,4592z"/><path d="M3664.6,1643.7c-247.5-107.8-306.4-436.2-112.7-629.9c274.5-276.9,725.4-29.4,654.4,357.8C4162.1,1602.1,3885.2,1741.8,3664.6,1643.7z"/><path d="M6017.3,1643.7c-247.5-107.8-306.3-436.2-112.7-629.9c274.5-276.9,725.4-29.4,654.3,357.8C6514.8,1602.1,6237.9,1741.8,6017.3,1643.7z"/><path d="M4725.8-1142.8c-686.2-46.6-1431.3-362.7-1926.3-823.5L2645-2108.4l134.8-132.4l134.8-132.3l112.7,95.6c370.1,311.3,803.9,546.5,1225.4,664.2c230.4,63.7,274.5,66.2,747.5,66.2c473,0,517.1-2.4,747.5-66.2c421.5-117.7,855.3-352.9,1225.4-664.2l112.7-95.6l134.8,132.3l134.8,132.4l-154.4,142.1C6568.8-1380.5,5671.8-1081.6,4725.8-1142.8z"/></g></g>
</svg>