<?xml version="1.0" encoding="UTF-8"?>
<svg width="173px" height="247px" viewBox="0 0 173 247" version="1.1" xmlns="http://www.w3.org/2000/svg" xmlns:xlink="http://www.w3.org/1999/xlink">
    <g id="OL-Web" stroke="none" stroke-width="1" fill="none" fill-rule="evenodd">
        <g id="Whoops-404" transform="translate(-514.000000, -265.000000)">
            <g id="Group-23-Copy" transform="translate(514.000000, 265.000000)">
                <g id="team" transform="translate(17.000000, 0.000000)" fill-rule="nonzero">
                    <path d="M125.217901,153.398685 L91.8954894,132.945638 L68,146.390793 L44.1045106,132.946452 L10.7820993,153.399499 C4.48655319,157.263648 0.295631206,167.36237 0.295631206,178.669097 L0.295631206,220.335484 C0.295631206,224.047411 2.07858156,227.057654 4.27821277,227.057654 C11.4624779,226.041049 16.6274235,226.041049 19.7730496,227.057654 C42.2311756,234.315686 58.8375157,243 70.893617,243 C81.480322,243 96.8959095,236.756688 115.262411,230.439364 C118.899854,229.188233 124.204819,225.820273 131.177305,220.335484 C133.376936,220.335484 135.704369,224.047411 135.704369,220.335484 L135.704369,178.669097 C135.704369,167.361556 131.513929,157.262834 125.217901,153.398685 Z" id="Shape" fill="#000000"></path>
                    <polygon id="Shape" fill="#707487" points="63.8278865 148.90441 60.0348369 243 75.9651631 243 72.1721135 148.90441"></polygon>
                    <path d="M72.1812766,154.385195 L63.8187234,154.385195 C62.2788369,154.385195 61.0307234,153.134928 61.0307234,151.592386 L61.0307234,140.925024 L74.9687945,140.925024 L74.9687943,151.592386 C74.9692766,153.134445 73.7211631,154.385195 72.1812766,154.385195 Z" id="Shape" fill="#5B5D6E"></path>
                    <path d="M131.157915,161.293545 C134.00987,165.990605 135.704369,172.246289 135.704369,178.956376 L135.704369,219.127427 C135.704369,222.706924 133.813466,225.60835 131.480652,225.60835 L110.362071,225.60835 L110.362071,203.941442 C110.362071,197.065761 112.141985,190.471826 115.31054,185.610741 L131.157915,161.293545 Z" id="Shape" fill="#207AC1"></path>
                    <path d="M111.808879,50.6720219 L111.808879,17.2510676 C111.808879,12.8442167 108.242496,9.27216501 103.843716,9.27216501 L56.0522553,9.27216501 C38.4561702,9.27216501 24.1911206,23.561338 24.1911206,41.1882584 L24.1911206,50.6720219 C24.1911206,54.9600298 24.8812482,59.2200179 26.2349787,63.2877316 L27.5607376,67.2718688 C27.9668085,68.4921829 28.1737021,69.7699861 28.1737021,71.0564851 L28.1737021,73.1038688 L107.825816,73.1038688 L107.825816,71.0564851 C107.825816,69.7699861 108.032709,68.4921829 108.43878,67.2718688 L109.764539,63.2877316 C111.118752,59.2195348 111.808879,54.9595467 111.808879,50.6720219 Z" id="Shape" fill="#5A4146"></path>
                    <path d="M44.1045106,25.4792505 C44.1045106,34.4301531 51.3481986,41.686336 60.2836879,41.686336 L62.5238298,41.686336 L63.605078,73.1033857 L107.825816,73.1033857 L107.825816,71.056002 C107.825816,69.769503 108.032709,68.4916998 108.43878,67.2713857 L109.764539,63.2872485 C111.11827,59.2195348 111.808397,54.9595467 111.808397,50.6715388 L111.808397,17.2510676 C111.808397,12.8442167 100.852681,17.2510676 96.4539007,17.2510676 C92.6302537,5.75035586 88.6113412,0 84.3971631,0 C80.2040732,0 76.6674527,2.64231292 69.4468085,6.28031809 C67.9857989,7.01642422 64.9314254,8.01370652 60.2836879,9.27216501 C51.3481986,9.27216501 44.1045106,16.5283479 44.1045106,25.4792505 Z" id="Shape" fill="#694B4B"></path>
                    <rect id="Rectangle-path" fill="#E6AF78" x="44.1035461" y="105.021412" width="47.7929078" height="35.9040954"></rect>
                    <path d="M44.1045106,118.509602 C51.1398582,122.592292 59.2849078,124.966736 68,124.966736 C76.7150922,124.966736 84.8606241,122.592292 91.8954894,118.509602 L91.8954894,105.019479 L44.1040284,105.019479 L44.1045106,118.509602 Z" id="Shape" fill="#D29B6E"></path>
                    <g id="Group" transform="translate(35.687943, 126.089463)" fill="#207AC1">
                        <path d="M32.3120567,14.8355606 L19.6100426,27.5594851 C17.9028085,29.269664 15.0810496,29.0769066 13.6217021,27.1502982 L0.451404255,9.76637773 L3.89625532,2.49425249 C4.91287943,0.348316103 7.56439716,-0.438172962 9.5831773,0.808228628 L32.3120567,14.8355606 Z" id="Shape"></path>
                        <path d="M32.3120567,14.8355606 L45.0140709,27.5594851 C46.721305,29.269664 49.5430638,29.0769066 51.0024113,27.1502982 L64.1727092,9.76637773 L60.7278582,2.49425249 C59.711234,0.348316103 57.0597163,-0.438172962 55.0409362,0.808228628 L32.3120567,14.8355606 Z" id="Shape"></path>
                    </g>
                    <path d="M68,116.988316 C46.0046525,116.988316 28.1737021,99.1266083 28.1737021,77.0933201 L28.1737021,72.4193141 C28.1737021,70.30333 29.0128511,68.2738211 30.5064397,66.777173 L33.8056454,63.4722763 C35.299234,61.9761113 36.138383,59.9466024 36.138383,57.8301352 L36.138383,48.26666 C36.138383,46.4192803 37.3768511,44.8144175 39.1713759,44.3897714 C48.5905816,42.1612247 77.9014752,36.8823757 97.8486241,51.5783201 C99.144,52.5324453 99.8601702,54.1001093 99.8601702,55.7107694 L99.8601702,57.8301352 C99.8601702,59.9461193 100.699319,61.9756282 102.192908,63.4722763 L105.492113,66.777173 C106.985702,68.273338 107.824851,70.3028469 107.824851,72.4193141 L107.824851,77.0933201 C107.826298,99.1266083 89.9953475,116.988316 68,116.988316 Z" id="Shape" fill="#F0C087"></path>
                    <path d="M97.8491064,51.5788032 C83.8198865,41.2428489 65.1845106,40.795497 52.0696738,42.210501 C46.5375603,42.8071312 41.9666099,43.7293718 39.1723404,44.3902545 C37.3778156,44.8149006 36.1393475,46.4197634 36.1393475,48.2671431 L36.1393475,57.8301352 C36.1393475,59.9466024 35.3001986,61.9761113 33.8061277,63.4727594 L30.506922,66.7776561 C29.0128511,68.2743042 28.1737021,70.3038131 28.1737021,72.4202803 L28.1737021,77.0938032 C28.1737021,97.4922763 43.4664681,114.285364 63.1874326,116.669469 C56.3155745,109.500728 52.0691915,99.7860417 52.0691915,89.0621571 L52.0691915,59.901674 C52.0691915,55.8585984 55.0703546,52.4797873 59.0746383,51.9768787 C68.6322553,50.7763718 86.1376738,50.0546183 99.8601702,57.8311014 L99.8601702,55.7112525 C99.8611348,54.1005924 99.1435177,52.5324453 97.8491064,51.5788032 Z" id="Shape" fill="#E6AF78"></path>
                    <path d="M4.84208486,161.293545 C1.99013013,165.955323 0.295631206,172.164018 0.295631206,178.823701 L0.295631206,218.693007 C0.295631206,222.245617 2.18653448,225.125249 4.51934752,225.125249 L25.6379291,225.125249 L25.6379291,203.621091 C25.6379291,196.797058 23.8580147,190.252653 20.6894603,185.428082 L4.84208486,161.293545 Z" id="Shape" fill="#207AC1"></path>
                </g>
                <path d="M0.7343662,167.798374 L15.3012808,221.556853 L84.5,246.290308 L84.5,198.193842 L0.7343662,167.798374 Z M42.416802,192.348622 L52.4805812,192.348622 L64.9837315,199.284304 L79.459819,200.787137 L75.9198216,209.922244 L79.2866563,222.954625 L75.9438976,229.966378 L79.7441229,238.884252 L62.5431954,230.449817 C57.9965854,230.248096 54.5387565,229.65716 52.1590162,228.666414 C49.7955656,227.682449 46.4446263,225.448209 42.0842321,221.957831 L29.6980134,221.957831 L31.1793194,208.083317 L25.3171724,198.768694 L25.5455852,198.49017 C27.010246,196.704179 27.6067963,194.853691 27.3571898,192.912385 C27.0998814,190.911179 25.8420028,187.970585 23.5801952,184.120747 L22.9200698,182.997143 L33.980069,186.502151 L34.1147107,186.568447 L42.416802,192.348622 Z M64.9837315,199.284304 L65.073049,199.33385 L64.8821384,199.273757 L64.9837315,199.284304 Z" id="Combined-Shape" stroke="#979797" fill="#D8D8D8"></path>
                <path d="M85.7343662,167.798374 L100.301281,221.556853 L169.5,246.290308 L169.5,198.193842 L85.7343662,167.798374 Z M127.416802,192.348622 L127.545579,192.438281 L127.259887,192.348622 L127.416802,192.348622 Z M127.416802,192.348622 L137.480581,192.348622 L149.983731,199.284304 L164.459819,200.787137 L160.919822,209.922244 L164.286656,222.954625 L160.943898,229.966378 L164.744123,238.884252 L147.543195,230.449817 C142.996585,230.248096 139.538756,229.65716 137.159016,228.666414 C134.795566,227.682449 131.444626,225.448209 127.084232,221.957831 L114.698013,221.957831 L116.179319,208.083317 L110.317172,198.768694 L110.545585,198.49017 C112.010246,196.704179 112.606796,194.853691 112.35719,192.912385 C112.099881,190.911179 110.842003,187.970585 108.580195,184.120747 L107.92007,182.997143 L118.980069,186.502151 L119.114711,186.568447 L127.416802,192.348622 Z M149.983731,199.284304 L150.073049,199.33385 L149.882138,199.273757 L149.983731,199.284304 Z M116.179319,208.083317 L116.197741,207.910775 L116.271745,208.230177 L116.179319,208.083317 Z" id="Combined-Shape" stroke="#979797" fill="#D8D8D8" transform="translate(127.500000, 207.000000) scale(-1, 1) translate(-127.500000, -207.000000) "></path>
                <path d="M12.2971185,196.127737 L13.287327,195.917259 C18.8908873,194.726172 24.3990372,198.303188 25.5901243,203.906748 C25.6666214,204.266635 25.7239164,204.630336 25.7617664,204.996311 L27.5607235,222.390556 C28.115224,227.752062 24.2183765,232.547933 18.8568709,233.102433 C17.7312109,233.218852 16.5938795,233.138608 15.4957171,232.86529 L11.8602504,231.960468 C6.06663968,230.518512 2,225.315677 2,219.34532 L2,208.843649 C2,202.705605 6.29320853,197.403922 12.2971185,196.127737 Z" id="Rectangle-21" fill="#E6AF78"></path>
                <path d="M157.683845,196.127737 L158.674053,195.917259 C164.277613,194.726172 169.785763,198.303188 170.97685,203.906748 C171.053347,204.266635 171.110642,204.630336 171.148492,204.996311 L172.947449,222.390556 C173.50195,227.752062 169.605102,232.547933 164.243597,233.102433 C163.117937,233.218852 161.980606,233.138608 160.882443,232.86529 L157.246976,231.960468 C151.453366,230.518512 147.386726,225.315677 147.386726,219.34532 L147.386726,208.843649 C147.386726,202.705605 151.679935,197.403922 157.683845,196.127737 Z" id="Rectangle-21" fill="#E6AF78" transform="translate(160.193363, 214.421334) scale(-1, 1) translate(-160.193363, -214.421334) "></path>
            </g>
        </g>
    </g>
</svg>
